# xmcd
#
# Track frame offsets:
# 150
# 14010
# 32153
# 58793
# 70678
# 80698
# 95458
# 105870
# 126490
# 139430
#
# Disc length: 2099 seconds
#
# Revision: 0
# Processed by: cddbd v1.4PL0 Copyright (c) Steve Scherf et al.
# Submitted via: Axialis_AX_CDPlayer 2.6
#
DISCID=8c08310a
DTITLE=Marty Robbins - All Around Cowboy
DYEAR=1900
DGENRE=
TTITLE0=All Around Cowboy
TTITLE1=The Dreamer
TTITLE2=Pride And The Badge
TTITLE3=Restless Cattle
TTITLE4=When I'm Gone
TTITLE5=Buenos Dias Argentina
TTITLE6=Lonely Old Bunkhouse
TTITLE7=San Angelo
TTITLE8=Tumbling Tumbleweeds
TTITLE9=Ballad Of A Small Man
EXTD=
EXTT0=
EXTT1=
EXTT2=
EXTT3=
EXTT4=
EXTT5=
EXTT6=
EXTT7=
EXTT8=
EXTT9=
PLAYORDER=
